<svg xmlns="http://www.w3.org/2000/svg" xmlns:xlink="http://www.w3.org/1999/xlink" width="137" height="137" viewBox="0 0 137 137">
  <defs>
    <linearGradient id="linear-gradient" x1="0.831" x2="0.253" y2="1.09" gradientUnits="objectBoundingBox">
      <stop offset="0" stop-color="#ff7581"/>
      <stop offset="1" stop-color="#ff293a"/>
    </linearGradient>
  </defs>
  <g id="Raggruppa_10" data-name="Raggruppa 10" transform="translate(-1762 -1394)">
    <g id="Tracciato_7" data-name="Tracciato 7" transform="translate(1762 1394)" fill="url(#linear-gradient)">
      <path d="M 68.5 134.5 C 59.58895874023438 134.5 50.94578170776367 132.7553253173828 42.81060028076172 129.3144226074219 C 38.90036010742188 127.6605377197266 35.12873840332031 125.6133422851562 31.60051918029785 123.2297210693359 C 28.10515975952148 120.8683013916016 24.8182201385498 118.1563034057617 21.83095932006836 115.169059753418 C 18.84370040893555 112.1818008422852 16.13170051574707 108.8948364257812 13.77027988433838 105.3994979858398 C 11.38665962219238 101.8712615966797 9.339480400085449 98.09966278076172 7.685579776763916 94.18942260742188 C 4.244679927825928 86.05422210693359 2.5 77.41104125976562 2.5 68.5 C 2.5 59.58895874023438 4.244679927825928 50.94580078125 7.685579776763916 42.81060028076172 C 9.339480400085449 38.90036010742188 11.38665962219238 35.12873840332031 13.77027988433838 31.60051918029785 C 16.13170051574707 28.10515975952148 18.84370040893555 24.8182201385498 21.83095932006836 21.83095932006836 C 24.8182201385498 18.84370040893555 28.10515975952148 16.13170051574707 31.60051918029785 13.77027988433838 C 35.12873840332031 11.38665962219238 38.90036010742188 9.339480400085449 42.81060028076172 7.685579776763916 C 50.94580078125 4.244679927825928 59.58895874023438 2.5 68.5 2.5 C 77.41104125976562 2.5 86.05422210693359 4.244679927825928 94.18942260742188 7.685579776763916 C 98.09966278076172 9.339480400085449 101.8712615966797 11.38665962219238 105.3994979858398 13.77027988433838 C 108.8948364257812 16.13170051574707 112.1818008422852 18.84370040893555 115.169059753418 21.83095932006836 C 118.1563034057617 24.8182201385498 120.8683013916016 28.10515975952148 123.2297210693359 31.60051918029785 C 125.6133422851562 35.12873840332031 127.6605377197266 38.90036010742188 129.3144226074219 42.81060028076172 C 132.7553253173828 50.94578170776367 134.5 59.58895874023438 134.5 68.5 C 134.5 77.41104125976562 132.7553253173828 86.05422210693359 129.3144226074219 94.18942260742188 C 127.6605377197266 98.09966278076172 125.6133422851562 101.8712615966797 123.2297210693359 105.3994979858398 C 120.8683013916016 108.8948364257812 118.1563034057617 112.1818008422852 115.169059753418 115.169059753418 C 112.1818008422852 118.1563034057617 108.8948364257812 120.8683013916016 105.3994979858398 123.2297210693359 C 101.8712615966797 125.6133422851562 98.09966278076172 127.6605377197266 94.18942260742188 129.3144226074219 C 86.05422210693359 132.7553253173828 77.41104125976562 134.5 68.5 134.5 Z" stroke="none"/>
      <path d="M 68.5 5 C 59.92534637451172 5 51.60984802246094 6.678237915039062 43.78447723388672 9.988090515136719 C 40.02291107177734 11.57910919189453 36.39450073242188 13.548583984375 33.00004577636719 15.84185028076172 C 29.63652038574219 18.11417388916016 26.47348022460938 20.72397613525391 23.59871673583984 23.59871673583984 C 20.72397613525391 26.47348022460938 18.11417388916016 29.63652038574219 15.84185028076172 33.00004577636719 C 13.548583984375 36.39450073242188 11.57910919189453 40.02291107177734 9.988090515136719 43.78447723388672 C 6.678237915039062 51.60984802246094 5 59.92534637451172 5 68.5 C 5 77.07465362548828 6.678237915039062 85.39015197753906 9.988090515136719 93.21554565429688 C 11.57910919189453 96.97711181640625 13.548583984375 100.6054992675781 15.84185028076172 103.9999771118164 C 18.11417388916016 107.3634796142578 20.72397613525391 110.5265426635742 23.59871673583984 113.4012832641602 C 26.47348022460938 116.2760467529297 29.63652038574219 118.8858261108398 33.00004577636719 121.1581726074219 C 36.39450073242188 123.451416015625 40.02291107177734 125.4209136962891 43.78447723388672 127.0119171142578 C 51.60984802246094 130.3217620849609 59.92534637451172 132 68.5 132 C 77.07465362548828 132 85.39015197753906 130.3217620849609 93.21554565429688 127.0119171142578 C 96.97711181640625 125.4209136962891 100.6054992675781 123.451416015625 103.9999771118164 121.1581726074219 C 107.3634796142578 118.8858261108398 110.5265426635742 116.2760467529297 113.4012832641602 113.4012832641602 C 116.2760467529297 110.5265426635742 118.8858261108398 107.3634796142578 121.1581726074219 103.9999771118164 C 123.451416015625 100.6054992675781 125.4209136962891 96.97711181640625 127.0119171142578 93.21554565429688 C 130.3217620849609 85.39015197753906 132 77.07465362548828 132 68.5 C 132 59.92534637451172 130.3217620849609 51.60984802246094 127.0119171142578 43.78447723388672 C 125.4209136962891 40.02291107177734 123.451416015625 36.39450073242188 121.1581726074219 33.00004577636719 C 118.8858261108398 29.63652038574219 116.2760467529297 26.47348022460938 113.4012832641602 23.59871673583984 C 110.5265426635742 20.72397613525391 107.3634796142578 18.11417388916016 103.9999771118164 15.84185028076172 C 100.6054992675781 13.548583984375 96.97711181640625 11.57910919189453 93.21554565429688 9.988090515136719 C 85.39015197753906 6.678237915039062 77.07465362548828 5 68.5 5 M 68.5 0 C 106.3315200805664 0 137 30.66850280761719 137 68.5 C 137 106.3315200805664 106.3315200805664 137 68.5 137 C 30.66850280761719 137 0 106.3315200805664 0 68.5 C 0 30.66850280761719 30.66850280761719 0 68.5 0 Z" stroke="none" fill="#ffb9be"/>
    </g>
    <path id="Tracciato_9" data-name="Tracciato 9" d="M20.191,0A20.034,20.034,0,0,1,40.382,19.874,20.034,20.034,0,0,1,20.191,39.747,20.034,20.034,0,0,1,0,19.874,20.034,20.034,0,0,1,20.191,0Z" transform="translate(1810.618 1421)" fill="#fff"/>
    <path id="Tracciato_8" data-name="Tracciato 8" d="M37.1,0C57.593,0,74.2,11.482,74.2,25.645S0,39.808,0,25.645,16.611,0,37.1,0Z" transform="translate(1793.803 1468)" fill="#fff"/>
  </g>
</svg>
